<svg width="78" height="15" viewBox="0 0 78 15" fill="none" xmlns="http://www.w3.org/2000/svg">
<path d="M12.4964 5.32611C12.0937 2.41773 9.85653 0.730225 6.95454 0.730225C3.5348 0.730225 0.958801 3.22312 0.958801 7.45466C0.958801 11.6798 3.50284 14.1791 6.95454 14.1791C10.0675 14.1791 12.1321 12.1656 12.4964 9.6663L10.1058 9.65352C9.80539 11.1876 8.55255 12.0505 6.9865 12.0505C4.86434 12.0505 3.34303 10.4589 3.34303 7.45466C3.34303 4.50153 4.85156 2.85878 6.99289 2.85878C8.58451 2.85878 9.83096 3.76005 10.1058 5.32611H12.4964Z" fill="white"/>
<path d="M15.3881 14.0001H17.7596V9.20608H20.1758L22.7454 14.0001H25.3917L22.56 8.80977C24.1005 8.18974 24.9123 6.87298 24.9123 5.09599C24.9123 2.5967 23.3015 0.909202 20.2972 0.909202H15.3881V14.0001ZM17.7596 7.23733V2.89074H19.9329C21.7035 2.89074 22.4961 3.70253 22.4961 5.09599C22.4961 6.48946 21.7035 7.23733 19.9457 7.23733H17.7596Z" fill="white"/>
<path d="M29.4963 14.0001L30.5765 10.7721H35.4984L36.5851 14.0001H39.1163L34.5013 0.909202H31.5737L26.965 14.0001H29.4963ZM31.2157 8.8673L32.9863 3.59386H33.0886L34.8592 8.8673H31.2157Z" fill="white"/>
<path d="M41.5606 14.0001H43.932V9.57682H46.4377C49.4611 9.57682 51.0847 7.76148 51.0847 5.24301C51.0847 2.74372 49.4803 0.909202 46.4697 0.909202H41.5606V14.0001ZM43.932 7.62724V2.89074H46.1053C47.8823 2.89074 48.6685 3.84954 48.6685 5.24301C48.6685 6.63648 47.8823 7.62724 46.1181 7.62724H43.932Z" fill="white"/>
<path d="M53.8646 14.0001H56.236V9.57682H58.7417C61.7651 9.57682 63.3887 7.76148 63.3887 5.24301C63.3887 2.74372 61.7843 0.909202 58.7736 0.909202H53.8646V14.0001ZM56.236 7.62724V2.89074H58.4093C60.1863 2.89074 60.9725 3.84954 60.9725 5.24301C60.9725 6.63648 60.1863 7.62724 58.4221 7.62724H56.236Z" fill="white"/>
<path d="M77.866 7.45466C77.866 3.22312 75.2836 0.730225 71.8511 0.730225C68.4121 0.730225 65.8361 3.22312 65.8361 7.45466C65.8361 11.6798 68.4121 14.1791 71.8511 14.1791C75.2836 14.1791 77.866 11.6862 77.866 7.45466ZM75.4817 7.45466C75.4817 10.4333 73.986 12.0505 71.8511 12.0505C69.7225 12.0505 68.2204 10.4333 68.2204 7.45466C68.2204 4.47596 69.7225 2.85878 71.8511 2.85878C73.986 2.85878 75.4817 4.47596 75.4817 7.45466Z" fill="white"/>
</svg>
